<svg width="33" height="31" viewBox="0 0 33 31" fill="none" xmlns="http://www.w3.org/2000/svg">
<path d="M32.8467 28.9591L25.9104 17.6855C25.7207 17.3773 25.3914 17.1933 25.0295 17.1933C24.6677 17.1933 24.3384 17.3774 24.1489 17.6855L23.2483 19.1492C23.1082 19.3769 23.1792 19.6751 23.4069 19.8153C23.6348 19.9553 23.9329 19.8843 24.0731 19.6566L24.9736 18.1929C24.9784 18.1852 24.9929 18.1616 25.0297 18.1616C25.0665 18.1616 25.081 18.1852 25.0858 18.1929L32.0221 29.4665C32.0277 29.4754 32.0424 29.4993 32.0235 29.533C32.0047 29.5667 31.9766 29.5668 31.9661 29.5668H28.1246L17.3808 12.1052C17.2843 11.9484 17.1515 11.8239 16.9967 11.7393C16.9969 11.7393 16.9971 11.7395 16.9973 11.7395V8.45371C17.4002 8.56296 17.7926 8.60962 18.1766 8.60962C19.2808 8.60962 20.3148 8.2258 21.3264 7.8503C22.7281 7.32997 24.0521 6.83852 25.4841 7.41279C25.6688 7.48685 25.8775 7.46455 26.0423 7.35305C26.2074 7.24141 26.3058 7.05585 26.3058 6.85669V1.38739C26.3058 1.14634 26.1628 0.929711 25.9417 0.835609C24.1239 0.0604315 22.5304 0.651854 20.9894 1.22381C19.5457 1.75967 18.1822 2.26582 16.6976 1.60228C16.5477 1.53531 16.3743 1.54885 16.2366 1.63805C16.0989 1.72732 16.0158 1.8802 16.0158 2.0443V2.06228C16.0075 2.09831 16.0028 2.13563 16.0028 2.17417V11.7395C15.8483 11.8242 15.7156 11.9486 15.6192 12.1052L10.5184 20.3954L8.85116 17.6856C8.66154 17.3774 8.33225 17.1934 7.97035 17.1934C7.60851 17.1934 7.27922 17.3774 7.0896 17.6856L0.153216 28.9591C-0.0429152 29.2778 -0.0512941 29.6788 0.131237 30.0055C0.313768 30.3322 0.659688 30.5352 1.03397 30.5352H31.966C32.3403 30.5352 32.6862 30.3322 32.8687 30.0055C33.0513 29.6788 33.0429 29.2777 32.8467 28.9591ZM16.9842 2.73169C18.5515 3.16159 19.9592 2.63907 21.3264 2.13157C22.6789 1.62948 23.9604 1.15394 25.3376 1.63902V6.34313C23.7656 5.91207 22.3564 6.43517 20.9894 6.94254C19.6391 7.44373 18.3589 7.91894 16.9842 7.43535V2.73169ZM6.01233 29.5668L7.67335 26.8672C7.81347 26.6395 7.74244 26.3413 7.51473 26.2011C7.28695 26.0611 6.98879 26.132 6.84867 26.3598L4.87544 29.5668H1.03403C1.02346 29.5668 0.99536 29.5668 0.97654 29.5331C0.95772 29.4994 0.97235 29.4755 0.977958 29.4665L7.91434 18.193C7.91911 18.1853 7.93361 18.1617 7.97041 18.1617C8.00722 18.1617 8.02172 18.1853 8.02649 18.193L9.95003 21.3193L8.02939 24.4408C7.88927 24.6685 7.96029 24.9667 8.18801 25.1069C8.41585 25.247 8.71401 25.1759 8.85406 24.9482L16.4439 12.6126C16.4487 12.6049 16.4632 12.5813 16.5 12.5813C16.5367 12.5813 16.5513 12.6049 16.5561 12.6126L26.9877 29.5668H6.01233Z" fill="#8E6954"/>
</svg>
