<svg width="36" height="36" viewBox="0 0 36 36" fill="none" xmlns="http://www.w3.org/2000/svg">
<path d="M8.83474 10.8213C3.96326 10.8213 0 14.781 0 19.648C0 22.6698 1.43878 25.9188 4.27644 29.3048C4.69807 29.8079 5.11822 30.274 5.5214 30.6994C3.68922 31.199 2.58916 32.0967 2.58916 33.1444C2.58916 34.9992 5.80692 36 8.83446 36C11.8621 36 15.0798 34.9991 15.0798 33.1444C15.0798 32.0975 13.98 31.1996 12.1491 30.6998C12.8806 29.9282 13.6676 29.0205 14.4145 28.008C14.5876 27.7732 14.5375 27.4428 14.3026 27.2699C14.0678 27.0971 13.7369 27.147 13.5638 27.3817C12.6621 28.6043 11.6861 29.6786 10.8345 30.532C10.7369 30.5818 10.6552 30.6608 10.6041 30.7605C9.8412 31.5095 9.19922 32.0652 8.83495 32.3688C8.47469 32.0681 7.8425 31.52 7.0894 30.7807C7.03535 30.6624 6.94041 30.5696 6.82457 30.5178C4.43127 28.1128 1.05671 23.9576 1.05671 19.6482C1.05671 15.3633 4.54591 11.8773 8.83467 11.8773C13.1234 11.8773 16.6126 15.3633 16.6126 19.6482C16.6126 21.5194 15.9745 23.5402 14.7158 25.6544C14.5667 25.905 14.6491 26.229 14.8999 26.378C15.1507 26.527 15.475 26.4447 15.6241 26.1941C16.9813 23.9143 17.6694 21.712 17.6694 19.6482C17.6695 14.781 13.7062 10.8213 8.83474 10.8213ZM8.51136 33.4668C8.60651 33.5404 8.72066 33.5772 8.83474 33.5772C8.94882 33.5772 9.0629 33.5404 9.15812 33.4668C9.22294 33.4167 10.1059 32.7287 11.2828 31.579C13.0649 31.9421 14.0231 32.6413 14.0231 33.1445C14.0231 33.5203 13.5075 33.9637 12.6776 34.3015C11.6597 34.716 10.2948 34.9443 8.83453 34.9443C5.66715 34.9443 3.64594 33.8783 3.64594 33.1445C3.64594 32.6405 4.60447 31.9418 6.38753 31.5787C7.57098 32.7352 8.4552 33.4233 8.51136 33.4668Z" fill="#8E6954"/>
<path d="M8.83464 15.81C7.99892 15.81 7.20422 16.0736 6.53649 16.5724C6.30284 16.7469 6.25498 17.0778 6.42966 17.3113C6.60447 17.5447 6.9356 17.5924 7.16925 17.418C7.6528 17.0568 8.2287 16.8658 8.83457 16.8658C10.37 16.8658 11.6191 18.1138 11.6191 19.6479C11.6191 21.1819 10.37 22.4299 8.83457 22.4299C7.29916 22.4299 6.05005 21.1818 6.05005 19.6479C6.05005 19.3861 6.08629 19.1273 6.15772 18.8788C6.23823 18.5986 6.07615 18.3063 5.7957 18.2257C5.51532 18.1456 5.22263 18.3073 5.14205 18.5875C5.04345 18.9308 4.99341 19.2875 4.99341 19.6479C4.99341 21.764 6.71658 23.4857 8.83471 23.4857C10.9528 23.4857 12.676 21.7641 12.676 19.6479C12.6759 17.5317 10.9527 15.81 8.83464 15.81Z" fill="#8E6954"/>
<path d="M31.8613 15.3366C32.1301 15.0484 32.4071 14.7379 32.6848 14.4064C34.8846 11.7815 36 9.25803 36 6.90601C36 3.0981 32.8991 0 29.0877 0C26.3034 0 23.8034 1.65558 22.7188 4.21776C22.6051 4.48628 22.7308 4.79608 22.9995 4.90956C23.2682 5.02305 23.5784 4.89754 23.692 4.62909C24.6109 2.4584 26.7289 1.05574 29.0877 1.05574C32.3165 1.05574 34.9433 3.68022 34.9433 6.90608C34.9433 11.2685 30.3591 15.4479 29.0875 16.5231C28.8072 16.2865 28.3661 15.8992 27.8489 15.3926C27.7973 15.2905 27.714 15.2095 27.6139 15.1594C25.7895 13.3241 23.2321 10.1694 23.2321 6.90608C23.2321 6.6145 22.9956 6.37818 22.7037 6.37818C22.4119 6.37818 22.1753 6.6145 22.1753 6.90608C22.1753 9.25803 23.2907 11.7815 25.4906 14.4065C25.7682 14.7378 26.0449 15.0481 26.3136 15.3363C24.9516 15.7451 24.1652 16.4411 24.1652 17.2791C24.1652 17.9859 24.7391 18.6088 25.7812 19.033C26.6729 19.396 27.8471 19.596 29.0876 19.596C30.328 19.596 31.5022 19.396 32.394 19.033C33.4359 18.6087 34.0098 17.9858 34.0098 17.2791C34.0097 16.4426 33.2228 15.746 31.8613 15.3366ZM29.0875 18.5401C26.5864 18.5401 25.222 17.7071 25.222 17.279C25.222 17.0001 25.8427 16.4898 27.168 16.2083C28.0598 17.0752 28.7216 17.5903 28.7644 17.6234C28.8596 17.697 28.9737 17.7338 29.0877 17.7338C29.2018 17.7338 29.3158 17.697 29.4111 17.6234C29.4538 17.5904 30.1156 17.0752 31.0073 16.2084C31.5978 16.3342 32.1093 16.5185 32.4672 16.7362C32.7715 16.9214 32.9531 17.1243 32.9531 17.279C32.953 17.7071 31.5886 18.5401 29.0875 18.5401Z" fill="#8E6954"/>
<path d="M29.0877 3.83407C27.3924 3.83407 26.0131 5.21205 26.0131 6.90594C26.0131 8.5997 27.3923 9.97768 29.0877 9.97768C30.7831 9.97768 32.1623 8.59977 32.1623 6.90594C32.1623 5.21212 30.7831 3.83407 29.0877 3.83407ZM29.0878 8.92187C27.975 8.92187 27.0699 8.01751 27.0699 6.90587C27.0699 5.79424 27.975 4.88981 29.0878 4.88981C30.2004 4.88981 31.1057 5.79417 31.1057 6.90587C31.1056 8.01751 30.2004 8.92187 29.0878 8.92187Z" fill="#8E6954"/>
<path d="M22.2337 16.7514H21.9924C21.8167 16.7514 21.6402 16.763 21.4675 16.786C21.1784 16.8244 20.975 17.0898 21.0135 17.3789C21.0489 17.6443 21.2758 17.8373 21.5366 17.8373C21.5598 17.8373 21.5833 17.8358 21.607 17.8326C21.7336 17.8158 21.8633 17.8073 21.9925 17.8073H22.2337C22.5255 17.8073 22.762 17.571 22.762 17.2793C22.762 16.9877 22.5255 16.7514 22.2337 16.7514Z" fill="#8E6954"/>
<path d="M20.4868 32.5894C20.486 32.5894 20.4852 32.5894 20.4844 32.5894L19.7865 32.5926C19.4947 32.5939 19.2593 32.8314 19.2605 33.1229C19.2618 33.4136 19.4982 33.6484 19.7888 33.6484C19.7897 33.6484 19.7905 33.6484 19.7913 33.6484L20.4892 33.6452C20.7809 33.6439 21.0164 33.4065 21.0151 33.1149C21.0139 32.8241 20.7776 32.5894 20.4868 32.5894Z" fill="#8E6954"/>
<path d="M22.8605 23.5888H22.1626C21.8708 23.5888 21.6343 23.8252 21.6343 24.1167C21.6343 24.4083 21.8707 24.6446 22.1626 24.6446H22.8605C23.1524 24.6446 23.3889 24.4084 23.3889 24.1167C23.3889 23.8252 23.1524 23.5888 22.8605 23.5888Z" fill="#8E6954"/>
<path d="M20.0608 17.8269C19.863 17.6127 19.5289 17.5993 19.3142 17.7968C19.1172 17.9783 18.938 18.1806 18.7817 18.3982C18.6114 18.635 18.6656 18.9649 18.9026 19.135C18.9959 19.2019 19.1037 19.2341 19.2105 19.2341C19.3748 19.2341 19.5368 19.1577 19.6401 19.0141C19.7548 18.8546 19.8862 18.7061 20.0307 18.5729C20.2452 18.3752 20.2587 18.0412 20.0608 17.8269Z" fill="#8E6954"/>
<path d="M23.2784 32.5767C23.2776 32.5767 23.2768 32.5767 23.2759 32.5767L22.5782 32.5799C22.2864 32.5812 22.0509 32.8187 22.0522 33.1102C22.0534 33.401 22.2898 33.6357 22.5805 33.6357C22.5813 33.6357 22.5821 33.6357 22.5829 33.6357L23.2807 33.6326C23.5725 33.6313 23.808 33.3938 23.8067 33.1023C23.8054 32.8115 23.5691 32.5767 23.2784 32.5767Z" fill="#8E6954"/>
<path d="M17.6954 32.6023C17.6945 32.6023 17.6938 32.6023 17.6929 32.6023L16.9951 32.6054C16.7033 32.6068 16.4678 32.8442 16.469 33.1357C16.4704 33.4265 16.7066 33.6612 16.9974 33.6612C16.9982 33.6612 16.999 33.6612 16.9998 33.6612L17.6977 33.6581C17.9895 33.6567 18.225 33.4193 18.2237 33.1278C18.2224 32.837 17.9861 32.6023 17.6954 32.6023Z" fill="#8E6954"/>
<path d="M20.4511 23.1451C20.2851 23.0404 20.1289 22.9182 19.9871 22.782C19.7768 22.5799 19.4422 22.5866 19.24 22.7965C19.0377 23.0066 19.0442 23.3408 19.2545 23.5429C19.4479 23.7287 19.6608 23.8953 19.8872 24.038C19.9748 24.0932 20.0723 24.1195 20.1687 24.1195C20.3441 24.1195 20.5156 24.0324 20.6161 23.8731C20.7719 23.6266 20.6979 23.3006 20.4511 23.1451Z" fill="#8E6954"/>
<path d="M19.1523 21.2547C19.1168 21.0727 19.0988 20.8855 19.0988 20.6982L19.0989 20.6689C19.1024 20.3774 18.8686 20.1383 18.5768 20.1349C18.5747 20.1349 18.5726 20.1349 18.5705 20.1349C18.2815 20.1349 18.0456 20.3672 18.0422 20.6567L18.042 20.6983C18.042 20.9532 18.0666 21.2084 18.115 21.4567C18.1641 21.7087 18.3853 21.8836 18.6331 21.8836C18.6665 21.8836 18.7005 21.8804 18.7346 21.8738C19.0211 21.818 19.208 21.5408 19.1523 21.2547Z" fill="#8E6954"/>
<path d="M25.6521 23.5888H24.9543C24.6624 23.5888 24.4259 23.8252 24.4259 24.1167C24.4259 24.4083 24.6624 24.6446 24.9543 24.6446H25.6521C25.944 24.6446 26.1805 24.4084 26.1805 24.1167C26.1805 23.8252 25.944 23.5888 25.6521 23.5888Z" fill="#8E6954"/>
<path d="M34.1356 24.6639C33.932 24.5034 33.7144 24.3576 33.4887 24.2307C33.2347 24.0875 32.9123 24.1774 32.769 24.4315C32.6258 24.6854 32.7157 25.0075 32.97 25.1505C33.148 25.2508 33.3199 25.3658 33.4806 25.4926C33.5777 25.5692 33.693 25.6062 33.8077 25.6062C33.9638 25.6062 34.1185 25.5373 34.2228 25.4054C34.4036 25.1766 34.3646 24.8445 34.1356 24.6639Z" fill="#8E6954"/>
<path d="M32.1741 32.9551C32.134 32.6663 31.8669 32.4641 31.5784 32.5044C31.4053 32.5283 31.2281 32.5408 31.0514 32.5415L30.9525 32.542C30.6607 32.5435 30.4253 32.781 30.4267 33.0725C30.4282 33.3631 30.6644 33.5978 30.955 33.5978C30.9559 33.5978 30.9568 33.5978 30.9576 33.5978L31.0563 33.5974C31.2794 33.5964 31.5038 33.5806 31.723 33.5502C32.0122 33.5103 32.2141 33.2438 32.1741 32.9551Z" fill="#8E6954"/>
<path d="M34.5062 31.4704C34.3048 31.2592 33.9703 31.2511 33.7592 31.4523C33.6109 31.5934 33.4504 31.724 33.2822 31.8406C33.0424 32.0067 32.9828 32.3356 33.1489 32.5753C33.2516 32.7232 33.4162 32.8025 33.5837 32.8025C33.6875 32.8025 33.7924 32.772 33.8842 32.7084C34.0972 32.5608 34.3004 32.3954 34.4881 32.2168C34.6994 32.0156 34.7075 31.6814 34.5062 31.4704Z" fill="#8E6954"/>
<path d="M35.5344 28.9069C35.248 28.853 34.9714 29.0414 34.9174 29.3279C34.8794 29.5288 34.8255 29.7281 34.7569 29.9205C34.6589 30.1951 34.8023 30.4971 35.0772 30.595C35.1358 30.6159 35.1958 30.6258 35.2547 30.6258C35.4717 30.6258 35.6752 30.4911 35.7524 30.2751C35.8394 30.0311 35.9079 29.7782 35.956 29.5233C36.0098 29.2368 35.8211 28.9607 35.5344 28.9069Z" fill="#8E6954"/>
<path d="M35.8485 27.2098C35.7768 26.9605 35.6849 26.715 35.575 26.4797C35.4515 26.2154 35.1374 26.1013 34.8727 26.2244C34.6083 26.3478 34.4939 26.6619 34.6173 26.9261C34.7038 27.1114 34.7763 27.3049 34.8327 27.501C34.8992 27.7326 35.1106 27.8835 35.3403 27.8835C35.3887 27.8835 35.4377 27.8768 35.4864 27.8629C35.7668 27.7824 35.9289 27.49 35.8485 27.2098Z" fill="#8E6954"/>
<path d="M28.4437 23.5888H27.7458C27.454 23.5888 27.2175 23.8252 27.2175 24.1167C27.2175 24.4083 27.4539 24.6446 27.7458 24.6446H28.4437C28.7355 24.6446 28.9721 24.4084 28.9721 24.1167C28.9721 23.8252 28.7355 23.5888 28.4437 23.5888Z" fill="#8E6954"/>
<path d="M26.0699 32.5643C26.0691 32.5643 26.0683 32.5643 26.0675 32.5643L25.3696 32.5674C25.0778 32.5687 24.8424 32.8062 24.8436 33.0977C24.845 33.3885 25.0813 33.6232 25.3719 33.6232C25.3728 33.6232 25.3736 33.6232 25.3744 33.6232L26.0723 33.6201C26.364 33.6187 26.5995 33.3813 26.5982 33.0898C26.597 32.799 26.3606 32.5643 26.0699 32.5643Z" fill="#8E6954"/>
<path d="M31.2585 23.5939C31.1837 23.5905 31.108 23.5889 31.0335 23.5889H30.5373C30.2455 23.5889 30.0089 23.8253 30.0089 24.1168C30.0089 24.4084 30.2454 24.6447 30.5373 24.6447H31.0335C31.0933 24.6447 31.1527 24.646 31.2117 24.6486C31.2197 24.649 31.2276 24.6491 31.2355 24.6491C31.5165 24.6491 31.7505 24.4279 31.7629 24.1446C31.7758 23.8533 31.55 23.6067 31.2585 23.5939Z" fill="#8E6954"/>
<path d="M28.8614 32.5514C28.8605 32.5514 28.8597 32.5514 28.8589 32.5514L28.161 32.5546C27.8693 32.5558 27.6338 32.7933 27.6351 33.0849C27.6364 33.3756 27.8727 33.6104 28.1634 33.6104C28.1642 33.6104 28.1651 33.6104 28.1658 33.6104L28.8637 33.6072C29.1555 33.6059 29.3909 33.3684 29.3897 33.0769C29.3884 32.7861 29.1521 32.5514 28.8614 32.5514Z" fill="#8E6954"/>
</svg>
