<svg width="297" height="54" viewBox="0 0 297 54" fill="none" xmlns="http://www.w3.org/2000/svg">
<path d="M61.417 38.9H68.281V40.005H62.704V42.605H65.538C66.6213 42.605 67.4447 42.8303 68.008 43.281C68.5713 43.7317 68.853 44.3817 68.853 45.231C68.853 46.1237 68.5453 46.8083 67.93 47.285C67.3233 47.7617 66.4523 48 65.317 48H61.417V38.9ZM65.265 46.973C66.0103 46.973 66.578 46.83 66.968 46.544C67.358 46.258 67.553 45.8377 67.553 45.283C67.553 44.1823 66.7903 43.632 65.265 43.632H62.704V46.973H65.265ZM74.3708 41.045C75.0381 41.045 75.6361 41.1923 76.1648 41.487C76.6935 41.7817 77.1051 42.1933 77.3998 42.722C77.7031 43.2507 77.8548 43.8617 77.8548 44.555C77.8548 45.2483 77.7031 45.8637 77.3998 46.401C77.1051 46.9297 76.6935 47.3413 76.1648 47.636C75.6361 47.9307 75.0381 48.078 74.3708 48.078C73.8768 48.078 73.4218 47.9827 73.0058 47.792C72.5985 47.6013 72.2518 47.324 71.9658 46.96V50.522H70.7178V41.11H71.9138V42.202C72.1911 41.8207 72.5421 41.5347 72.9668 41.344C73.3915 41.1447 73.8595 41.045 74.3708 41.045ZM74.2668 46.986C74.7088 46.986 75.1031 46.8863 75.4498 46.687C75.8051 46.479 76.0825 46.193 76.2818 45.829C76.4898 45.4563 76.5938 45.0317 76.5938 44.555C76.5938 44.0783 76.4898 43.658 76.2818 43.294C76.0825 42.9213 75.8051 42.6353 75.4498 42.436C75.1031 42.2367 74.7088 42.137 74.2668 42.137C73.8335 42.137 73.4391 42.241 73.0838 42.449C72.7371 42.6483 72.4598 42.93 72.2518 43.294C72.0525 43.658 71.9528 44.0783 71.9528 44.555C71.9528 45.0317 72.0525 45.4563 72.2518 45.829C72.4511 46.193 72.7285 46.479 73.0838 46.687C73.4391 46.8863 73.8335 46.986 74.2668 46.986ZM82.619 48.078C81.9343 48.078 81.319 47.9263 80.773 47.623C80.227 47.3197 79.798 46.9037 79.486 46.375C79.1827 45.8377 79.031 45.231 79.031 44.555C79.031 43.879 79.1827 43.2767 79.486 42.748C79.798 42.2107 80.227 41.7947 80.773 41.5C81.319 41.1967 81.9343 41.045 82.619 41.045C83.3037 41.045 83.9147 41.1967 84.452 41.5C84.998 41.7947 85.4227 42.2107 85.726 42.748C86.038 43.2767 86.194 43.879 86.194 44.555C86.194 45.231 86.038 45.8377 85.726 46.375C85.4227 46.9037 84.998 47.3197 84.452 47.623C83.9147 47.9263 83.3037 48.078 82.619 48.078ZM82.619 46.986C83.061 46.986 83.4553 46.8863 83.802 46.687C84.1573 46.479 84.4347 46.193 84.634 45.829C84.8333 45.4563 84.933 45.0317 84.933 44.555C84.933 44.0783 84.8333 43.658 84.634 43.294C84.4347 42.9213 84.1573 42.6353 83.802 42.436C83.4553 42.2367 83.061 42.137 82.619 42.137C82.177 42.137 81.7783 42.2367 81.423 42.436C81.0763 42.6353 80.799 42.9213 80.591 43.294C80.3917 43.658 80.292 44.0783 80.292 44.555C80.292 45.0317 80.3917 45.4563 80.591 45.829C80.799 46.193 81.0763 46.479 81.423 46.687C81.7783 46.8863 82.177 46.986 82.619 46.986ZM87.9961 41.11H89.2441V44.035H93.1701V41.11H94.4181V48H93.1701V45.114H89.2441V48H87.9961V41.11ZM102.942 41.045C103.609 41.045 104.207 41.1967 104.736 41.5C105.264 41.7947 105.68 42.2107 105.984 42.748C106.287 43.2767 106.439 43.879 106.439 44.555C106.439 45.231 106.287 45.8377 105.984 46.375C105.68 46.9037 105.264 47.3197 104.736 47.623C104.207 47.9263 103.609 48.078 102.942 48.078C102.335 48.078 101.785 47.9523 101.291 47.701C100.797 47.4497 100.389 47.0987 100.069 46.648C99.7567 46.1887 99.5617 45.6687 99.4837 45.088H98.0927V48H96.8447V41.11H98.0927V43.931H99.4967C99.5834 43.359 99.7827 42.8563 100.095 42.423C100.415 41.981 100.818 41.643 101.304 41.409C101.798 41.1663 102.344 41.045 102.942 41.045ZM102.942 46.986C103.366 46.986 103.748 46.8863 104.086 46.687C104.432 46.4877 104.705 46.206 104.905 45.842C105.104 45.4693 105.204 45.0403 105.204 44.555C105.204 44.0783 105.104 43.658 104.905 43.294C104.705 42.9213 104.432 42.6353 104.086 42.436C103.748 42.2367 103.366 42.137 102.942 42.137C102.517 42.137 102.131 42.2367 101.785 42.436C101.438 42.6353 101.165 42.9213 100.966 43.294C100.775 43.658 100.68 44.0783 100.68 44.555C100.68 45.0403 100.775 45.4693 100.966 45.842C101.165 46.206 101.438 46.4877 101.785 46.687C102.131 46.8863 102.517 46.986 102.942 46.986ZM112.925 44.425C113.818 44.6503 114.264 45.2093 114.264 46.102C114.264 46.7087 114.035 47.1767 113.575 47.506C113.125 47.8353 112.449 48 111.547 48H108.232V41.11H111.43C112.245 41.11 112.882 41.266 113.341 41.578C113.801 41.8813 114.03 42.3147 114.03 42.878C114.03 43.242 113.931 43.5583 113.731 43.827C113.541 44.087 113.272 44.2863 112.925 44.425ZM109.454 44.074H111.326C111.803 44.074 112.163 43.9873 112.405 43.814C112.657 43.6407 112.782 43.3893 112.782 43.06C112.782 42.4013 112.297 42.072 111.326 42.072H109.454V44.074ZM111.456 47.038C111.976 47.038 112.366 46.9557 112.626 46.791C112.886 46.6263 113.016 46.3707 113.016 46.024C113.016 45.6687 112.895 45.4043 112.652 45.231C112.418 45.0577 112.046 44.971 111.534 44.971H109.454V47.038H111.456ZM118.675 41.045C119.628 41.045 120.356 41.279 120.859 41.747C121.37 42.215 121.626 42.9127 121.626 43.84V48H120.443V47.09C120.235 47.4107 119.936 47.6577 119.546 47.831C119.164 47.9957 118.709 48.078 118.181 48.078C117.409 48.078 116.79 47.8917 116.322 47.519C115.862 47.1463 115.633 46.6567 115.633 46.05C115.633 45.4433 115.854 44.958 116.296 44.594C116.738 44.2213 117.44 44.035 118.402 44.035H120.378V43.788C120.378 43.2507 120.222 42.839 119.91 42.553C119.598 42.267 119.138 42.124 118.532 42.124C118.124 42.124 117.726 42.1933 117.336 42.332C116.946 42.462 116.616 42.6397 116.348 42.865L115.828 41.929C116.183 41.643 116.608 41.4263 117.102 41.279C117.596 41.123 118.12 41.045 118.675 41.045ZM118.389 47.116C118.865 47.116 119.277 47.012 119.624 46.804C119.97 46.5873 120.222 46.284 120.378 45.894V44.932H118.454C117.396 44.932 116.868 45.2873 116.868 45.998C116.868 46.3447 117.002 46.6177 117.271 46.817C117.539 47.0163 117.912 47.116 118.389 47.116ZM123.873 41.11H125.121V44.035H129.047V41.11H130.295V48H129.047V45.114H125.121V48H123.873V41.11ZM132.722 41.11H133.97V44.035H137.896V41.11H139.144V48H137.896V45.114H133.97V48H132.722V41.11ZM147.095 41.11V48H145.977V45.816H143.975H143.832L142.324 48H140.985L142.662 45.647C142.142 45.491 141.744 45.2353 141.466 44.88C141.189 44.516 141.05 44.0653 141.05 43.528C141.05 42.7393 141.319 42.1413 141.856 41.734C142.394 41.318 143.135 41.11 144.079 41.11H147.095ZM142.324 43.567C142.324 44.0263 142.467 44.3687 142.753 44.594C143.048 44.8107 143.486 44.919 144.066 44.919H145.977V42.202H144.118C142.922 42.202 142.324 42.657 142.324 43.567ZM156.025 48.078C155.323 48.078 154.694 47.9263 154.14 47.623C153.594 47.3197 153.165 46.9037 152.853 46.375C152.541 45.8377 152.385 45.231 152.385 44.555C152.385 43.879 152.541 43.2767 152.853 42.748C153.165 42.2107 153.594 41.7947 154.14 41.5C154.694 41.1967 155.323 41.045 156.025 41.045C156.649 41.045 157.203 41.1707 157.689 41.422C158.183 41.6733 158.564 42.0373 158.833 42.514L157.884 43.125C157.667 42.7957 157.398 42.5487 157.078 42.384C156.757 42.2193 156.402 42.137 156.012 42.137C155.561 42.137 155.154 42.2367 154.79 42.436C154.434 42.6353 154.153 42.9213 153.945 43.294C153.745 43.658 153.646 44.0783 153.646 44.555C153.646 45.0403 153.745 45.4693 153.945 45.842C154.153 46.206 154.434 46.4877 154.79 46.687C155.154 46.8863 155.561 46.986 156.012 46.986C156.402 46.986 156.757 46.9037 157.078 46.739C157.398 46.5743 157.667 46.3273 157.884 45.998L158.833 46.596C158.564 47.0727 158.183 47.441 157.689 47.701C157.203 47.9523 156.649 48.078 156.025 48.078ZM162.905 41.045C163.859 41.045 164.587 41.279 165.089 41.747C165.601 42.215 165.856 42.9127 165.856 43.84V48H164.673V47.09C164.465 47.4107 164.166 47.6577 163.776 47.831C163.395 47.9957 162.94 48.078 162.411 48.078C161.64 48.078 161.02 47.8917 160.552 47.519C160.093 47.1463 159.863 46.6567 159.863 46.05C159.863 45.4433 160.084 44.958 160.526 44.594C160.968 44.2213 161.67 44.035 162.632 44.035H164.608V43.788C164.608 43.2507 164.452 42.839 164.14 42.553C163.828 42.267 163.369 42.124 162.762 42.124C162.355 42.124 161.956 42.1933 161.566 42.332C161.176 42.462 160.847 42.6397 160.578 42.865L160.058 41.929C160.414 41.643 160.838 41.4263 161.332 41.279C161.826 41.123 162.351 41.045 162.905 41.045ZM162.619 47.116C163.096 47.116 163.508 47.012 163.854 46.804C164.201 46.5873 164.452 46.284 164.608 45.894V44.932H162.684C161.627 44.932 161.098 45.2873 161.098 45.998C161.098 46.3447 161.233 46.6177 161.501 46.817C161.77 47.0163 162.143 47.116 162.619 47.116ZM168.104 41.11H169.352V44.035H173.278V41.11H174.526V48H173.278V45.114H169.352V48H168.104V41.11ZM179.409 41.045C180.362 41.045 181.09 41.279 181.593 41.747C182.104 42.215 182.36 42.9127 182.36 43.84V48H181.177V47.09C180.969 47.4107 180.67 47.6577 180.28 47.831C179.899 47.9957 179.444 48.078 178.915 48.078C178.144 48.078 177.524 47.8917 177.056 47.519C176.597 47.1463 176.367 46.6567 176.367 46.05C176.367 45.4433 176.588 44.958 177.03 44.594C177.472 44.2213 178.174 44.035 179.136 44.035H181.112V43.788C181.112 43.2507 180.956 42.839 180.644 42.553C180.332 42.267 179.873 42.124 179.266 42.124C178.859 42.124 178.46 42.1933 178.07 42.332C177.68 42.462 177.351 42.6397 177.082 42.865L176.562 41.929C176.917 41.643 177.342 41.4263 177.836 41.279C178.33 41.123 178.854 41.045 179.409 41.045ZM179.123 47.116C179.6 47.116 180.011 47.012 180.358 46.804C180.705 46.5873 180.956 46.284 181.112 45.894V44.932H179.188C178.131 44.932 177.602 45.2873 177.602 45.998C177.602 46.3447 177.736 46.6177 178.005 46.817C178.274 47.0163 178.646 47.116 179.123 47.116ZM189.742 42.202H187.22V48H185.972V42.202H183.45V41.11H189.742V42.202ZM193.665 48.078C192.98 48.078 192.365 47.9263 191.819 47.623C191.273 47.3197 190.844 46.9037 190.532 46.375C190.229 45.8377 190.077 45.231 190.077 44.555C190.077 43.879 190.229 43.2767 190.532 42.748C190.844 42.2107 191.273 41.7947 191.819 41.5C192.365 41.1967 192.98 41.045 193.665 41.045C194.35 41.045 194.961 41.1967 195.498 41.5C196.044 41.7947 196.469 42.2107 196.772 42.748C197.084 43.2767 197.24 43.879 197.24 44.555C197.24 45.231 197.084 45.8377 196.772 46.375C196.469 46.9037 196.044 47.3197 195.498 47.623C194.961 47.9263 194.35 48.078 193.665 48.078ZM193.665 46.986C194.107 46.986 194.501 46.8863 194.848 46.687C195.203 46.479 195.481 46.193 195.68 45.829C195.879 45.4563 195.979 45.0317 195.979 44.555C195.979 44.0783 195.879 43.658 195.68 43.294C195.481 42.9213 195.203 42.6353 194.848 42.436C194.501 42.2367 194.107 42.137 193.665 42.137C193.223 42.137 192.824 42.2367 192.469 42.436C192.122 42.6353 191.845 42.9213 191.637 43.294C191.438 43.658 191.338 44.0783 191.338 44.555C191.338 45.0317 191.438 45.4563 191.637 45.829C191.845 46.193 192.122 46.479 192.469 46.687C192.824 46.8863 193.223 46.986 193.665 46.986ZM202.695 41.045C203.362 41.045 203.96 41.1923 204.489 41.487C205.018 41.7817 205.429 42.1933 205.724 42.722C206.027 43.2507 206.179 43.8617 206.179 44.555C206.179 45.2483 206.027 45.8637 205.724 46.401C205.429 46.9297 205.018 47.3413 204.489 47.636C203.96 47.9307 203.362 48.078 202.695 48.078C202.201 48.078 201.746 47.9827 201.33 47.792C200.923 47.6013 200.576 47.324 200.29 46.96V50.522H199.042V41.11H200.238V42.202C200.515 41.8207 200.866 41.5347 201.291 41.344C201.716 41.1447 202.184 41.045 202.695 41.045ZM202.591 46.986C203.033 46.986 203.427 46.8863 203.774 46.687C204.129 46.479 204.407 46.193 204.606 45.829C204.814 45.4563 204.918 45.0317 204.918 44.555C204.918 44.0783 204.814 43.658 204.606 43.294C204.407 42.9213 204.129 42.6353 203.774 42.436C203.427 42.2367 203.033 42.137 202.591 42.137C202.158 42.137 201.763 42.241 201.408 42.449C201.061 42.6483 200.784 42.93 200.576 43.294C200.377 43.658 200.277 44.0783 200.277 44.555C200.277 45.0317 200.377 45.4563 200.576 45.829C200.775 46.193 201.053 46.479 201.408 46.687C201.763 46.8863 202.158 46.986 202.591 46.986ZM207.992 41.11H209.24V48H207.992V41.11ZM208.616 39.784C208.374 39.784 208.17 39.706 208.005 39.55C207.849 39.394 207.771 39.2033 207.771 38.978C207.771 38.7527 207.849 38.562 208.005 38.406C208.17 38.2413 208.374 38.159 208.616 38.159C208.859 38.159 209.058 38.237 209.214 38.393C209.379 38.5403 209.461 38.7267 209.461 38.952C209.461 39.186 209.379 39.3853 209.214 39.55C209.058 39.706 208.859 39.784 208.616 39.784ZM211.648 41.11H212.896V48H211.648V41.11ZM211.349 39.875C211.158 39.875 211.002 39.8143 210.881 39.693C210.76 39.563 210.699 39.407 210.699 39.225C210.699 39.0343 210.76 38.8783 210.881 38.757C211.002 38.627 211.158 38.562 211.349 38.562C211.531 38.562 211.683 38.627 211.804 38.757C211.925 38.8783 211.986 39.0343 211.986 39.225C211.986 39.4157 211.925 39.5717 211.804 39.693C211.683 39.8143 211.531 39.875 211.349 39.875ZM213.195 39.875C213.013 39.875 212.861 39.8143 212.74 39.693C212.619 39.563 212.558 39.407 212.558 39.225C212.558 39.0343 212.619 38.8783 212.74 38.757C212.861 38.627 213.013 38.562 213.195 38.562C213.386 38.562 213.542 38.627 213.663 38.757C213.784 38.8783 213.845 39.0343 213.845 39.225C213.845 39.4157 213.784 39.5717 213.663 39.693C213.542 39.8143 213.386 39.875 213.195 39.875ZM219.998 44.425C220.89 44.6503 221.337 45.2093 221.337 46.102C221.337 46.7087 221.107 47.1767 220.648 47.506C220.197 47.8353 219.521 48 218.62 48H215.305V41.11H218.503C219.317 41.11 219.954 41.266 220.414 41.578C220.873 41.8813 221.103 42.3147 221.103 42.878C221.103 43.242 221.003 43.5583 220.804 43.827C220.613 44.087 220.344 44.2863 219.998 44.425ZM216.527 44.074H218.399C218.875 44.074 219.235 43.9873 219.478 43.814C219.729 43.6407 219.855 43.3893 219.855 43.06C219.855 42.4013 219.369 42.072 218.399 42.072H216.527V44.074ZM218.529 47.038C219.049 47.038 219.439 46.9557 219.699 46.791C219.959 46.6263 220.089 46.3707 220.089 46.024C220.089 45.6687 219.967 45.4043 219.725 45.231C219.491 45.0577 219.118 44.971 218.607 44.971H216.527V47.038H218.529ZM231.916 42.202H229.394V48H228.146V42.202H225.624V41.11H231.916V42.202ZM235.649 41.045C236.603 41.045 237.331 41.279 237.833 41.747C238.345 42.215 238.6 42.9127 238.6 43.84V48H237.417V47.09C237.209 47.4107 236.91 47.6577 236.52 47.831C236.139 47.9957 235.684 48.078 235.155 48.078C234.384 48.078 233.764 47.8917 233.296 47.519C232.837 47.1463 232.607 46.6567 232.607 46.05C232.607 45.4433 232.828 44.958 233.27 44.594C233.712 44.2213 234.414 44.035 235.376 44.035H237.352V43.788C237.352 43.2507 237.196 42.839 236.884 42.553C236.572 42.267 236.113 42.124 235.506 42.124C235.099 42.124 234.7 42.1933 234.31 42.332C233.92 42.462 233.591 42.6397 233.322 42.865L232.802 41.929C233.158 41.643 233.582 41.4263 234.076 41.279C234.57 41.123 235.095 41.045 235.649 41.045ZM235.363 47.116C235.84 47.116 236.252 47.012 236.598 46.804C236.945 46.5873 237.196 46.284 237.352 45.894V44.932H235.428C234.371 44.932 233.842 45.2873 233.842 45.998C233.842 46.3447 233.977 46.6177 234.245 46.817C234.514 47.0163 234.887 47.116 235.363 47.116ZM249.409 42.202H245.587V48H244.339V41.11H249.409V42.202ZM253.333 48.078C252.648 48.078 252.033 47.9263 251.487 47.623C250.941 47.3197 250.512 46.9037 250.2 46.375C249.897 45.8377 249.745 45.231 249.745 44.555C249.745 43.879 249.897 43.2767 250.2 42.748C250.512 42.2107 250.941 41.7947 251.487 41.5C252.033 41.1967 252.648 41.045 253.333 41.045C254.018 41.045 254.629 41.1967 255.166 41.5C255.712 41.7947 256.137 42.2107 256.44 42.748C256.752 43.2767 256.908 43.879 256.908 44.555C256.908 45.231 256.752 45.8377 256.44 46.375C256.137 46.9037 255.712 47.3197 255.166 47.623C254.629 47.9263 254.018 48.078 253.333 48.078ZM253.333 46.986C253.775 46.986 254.169 46.8863 254.516 46.687C254.871 46.479 255.149 46.193 255.348 45.829C255.547 45.4563 255.647 45.0317 255.647 44.555C255.647 44.0783 255.547 43.658 255.348 43.294C255.149 42.9213 254.871 42.6353 254.516 42.436C254.169 42.2367 253.775 42.137 253.333 42.137C252.891 42.137 252.492 42.2367 252.137 42.436C251.79 42.6353 251.513 42.9213 251.305 43.294C251.106 43.658 251.006 44.0783 251.006 44.555C251.006 45.0317 251.106 45.4563 251.305 45.829C251.513 46.193 251.79 46.479 252.137 46.687C252.492 46.8863 252.891 46.986 253.333 46.986ZM263.591 42.202H261.069V48H259.821V42.202H257.299V41.11H263.591V42.202ZM270.79 44.594C270.79 44.6893 270.781 44.815 270.764 44.971H265.174C265.252 45.5777 265.516 46.0673 265.967 46.44C266.426 46.804 266.994 46.986 267.67 46.986C268.493 46.986 269.156 46.7087 269.659 46.154L270.348 46.96C270.036 47.324 269.646 47.6013 269.178 47.792C268.718 47.9827 268.203 48.078 267.631 48.078C266.903 48.078 266.257 47.9307 265.694 47.636C265.13 47.3327 264.693 46.9123 264.381 46.375C264.077 45.8377 263.926 45.231 263.926 44.555C263.926 43.8877 264.073 43.2853 264.368 42.748C264.671 42.2107 265.083 41.7947 265.603 41.5C266.131 41.1967 266.725 41.045 267.384 41.045C268.042 41.045 268.627 41.1967 269.139 41.5C269.659 41.7947 270.062 42.2107 270.348 42.748C270.642 43.2853 270.79 43.9007 270.79 44.594ZM267.384 42.098C266.786 42.098 266.283 42.28 265.876 42.644C265.477 43.008 265.243 43.4847 265.174 44.074H269.594C269.524 43.4933 269.286 43.021 268.879 42.657C268.48 42.2843 267.982 42.098 267.384 42.098ZM278.526 41.11V48H277.278V42.202H274.314L274.236 43.736C274.193 44.6633 274.111 45.439 273.989 46.063C273.868 46.6783 273.669 47.1723 273.391 47.545C273.114 47.9177 272.728 48.104 272.234 48.104C272.009 48.104 271.753 48.065 271.467 47.987L271.545 46.934C271.658 46.96 271.762 46.973 271.857 46.973C272.204 46.973 272.464 46.8213 272.637 46.518C272.811 46.2147 272.923 45.855 272.975 45.439C273.027 45.023 273.075 44.4293 273.118 43.658L273.235 41.11H278.526ZM287.166 44.594C287.166 44.6893 287.158 44.815 287.14 44.971H281.55C281.628 45.5777 281.893 46.0673 282.343 46.44C282.803 46.804 283.37 46.986 284.046 46.986C284.87 46.986 285.533 46.7087 286.035 46.154L286.724 46.96C286.412 47.324 286.022 47.6013 285.554 47.792C285.095 47.9827 284.579 48.078 284.007 48.078C283.279 48.078 282.634 47.9307 282.07 47.636C281.507 47.3327 281.069 46.9123 280.757 46.375C280.454 45.8377 280.302 45.231 280.302 44.555C280.302 43.8877 280.45 43.2853 280.744 42.748C281.048 42.2107 281.459 41.7947 281.979 41.5C282.508 41.1967 283.102 41.045 283.76 41.045C284.419 41.045 285.004 41.1967 285.515 41.5C286.035 41.7947 286.438 42.2107 286.724 42.748C287.019 43.2853 287.166 43.9007 287.166 44.594ZM283.76 42.098C283.162 42.098 282.66 42.28 282.252 42.644C281.854 43.008 281.62 43.4847 281.55 44.074H285.97C285.901 43.4933 285.663 43.021 285.255 42.657C284.857 42.2843 284.358 42.098 283.76 42.098ZM289.103 41.11H290.351V46.128L294.576 41.11H295.707V48H294.459V42.982L290.247 48H289.103V41.11ZM292.327 40.213C291.685 40.213 291.187 40.0613 290.832 39.758C290.476 39.446 290.294 38.9997 290.286 38.419H291.131C291.139 38.7397 291.248 38.9997 291.456 39.199C291.672 39.3897 291.958 39.485 292.314 39.485C292.669 39.485 292.955 39.3897 293.172 39.199C293.388 38.9997 293.501 38.7397 293.51 38.419H294.381C294.372 38.9997 294.186 39.446 293.822 39.758C293.458 40.0613 292.959 40.213 292.327 40.213Z" fill="#BD7F5C"/>
<path d="M74.8666 8.442L68.6235 23H65.1067L58.8637 8.442H62.4078L66.9333 19.2378L71.5951 8.442H74.8666ZM81.3083 23.1908C80.127 23.1908 78.9729 23.0363 77.846 22.7274C76.7192 22.4184 75.8195 22.0276 75.1471 21.5551L76.4557 18.9652C77.11 19.4014 77.8915 19.7558 78.8002 20.0284C79.7271 20.2829 80.6359 20.4101 81.5264 20.4101C83.562 20.4101 84.5798 19.8739 84.5798 18.8016C84.5798 18.2927 84.3163 17.9383 83.7892 17.7384C83.2803 17.5385 82.4533 17.3476 81.3083 17.1659C80.1088 16.9841 79.1274 16.7751 78.364 16.5389C77.6188 16.3026 76.9646 15.8937 76.4011 15.3121C75.8559 14.7123 75.5833 13.8854 75.5833 12.8312C75.5833 11.4499 76.1558 10.3504 77.3008 9.53249C78.464 8.69645 80.027 8.27843 81.9899 8.27843C82.9895 8.27843 83.9891 8.39657 84.9887 8.63284C85.9883 8.85094 86.8062 9.15082 87.4423 9.53249L86.1337 12.1224C84.8978 11.3954 83.5075 11.0319 81.9626 11.0319C80.963 11.0319 80.1997 11.1864 79.6726 11.4954C79.1637 11.7862 78.9093 12.1769 78.9093 12.6676C78.9093 13.2129 79.1819 13.6036 79.7271 13.8399C80.2905 14.058 81.1538 14.267 82.317 14.4669C83.4802 14.6487 84.4344 14.8577 85.1796 15.094C85.9247 15.3302 86.5608 15.7301 87.0879 16.2935C87.6332 16.8569 87.9058 17.6566 87.9058 18.6926C87.9058 20.0557 87.3151 21.1462 86.1337 21.964C84.9524 22.7819 83.3439 23.1908 81.3083 23.1908ZM104.526 15.8028C104.526 16.0391 104.508 16.3753 104.472 16.8115H93.0487C93.2487 17.8838 93.7666 18.738 94.6027 19.3741C95.4569 19.9921 96.511 20.301 97.7651 20.301C99.3645 20.301 100.682 19.774 101.718 18.7198L103.545 20.819C102.89 21.6005 102.063 22.1912 101.064 22.5911C100.064 22.9909 98.9374 23.1908 97.6833 23.1908C96.0839 23.1908 94.6754 22.8728 93.4577 22.2367C92.24 21.6005 91.2949 20.7191 90.6224 19.5922C89.9681 18.4472 89.641 17.1568 89.641 15.721C89.641 14.3034 89.959 13.0311 90.5951 11.9043C91.2494 10.7593 92.1491 9.86873 93.2941 9.23261C94.4391 8.59649 95.7295 8.27843 97.1653 8.27843C98.583 8.27843 99.8461 8.59649 100.955 9.23261C102.082 9.85055 102.954 10.732 103.572 11.877C104.208 13.0039 104.526 14.3125 104.526 15.8028ZM97.1653 11.0046C96.0748 11.0046 95.1479 11.3318 94.3846 11.9861C93.6394 12.6222 93.185 13.4764 93.0215 14.5487H101.282C101.137 13.4946 100.691 12.6404 99.9461 11.9861C99.2009 11.3318 98.274 11.0046 97.1653 11.0046ZM112.298 23.1908C111.116 23.1908 109.962 23.0363 108.835 22.7274C107.709 22.4184 106.809 22.0276 106.136 21.5551L107.445 18.9652C108.099 19.4014 108.881 19.7558 109.79 20.0284C110.717 20.2829 111.625 20.4101 112.516 20.4101C114.551 20.4101 115.569 19.8739 115.569 18.8016C115.569 18.2927 115.306 17.9383 114.779 17.7384C114.27 17.5385 113.443 17.3476 112.298 17.1659C111.098 16.9841 110.117 16.7751 109.353 16.5389C108.608 16.3026 107.954 15.8937 107.391 15.3121C106.845 14.7123 106.573 13.8854 106.573 12.8312C106.573 11.4499 107.145 10.3504 108.29 9.53249C109.453 8.69645 111.016 8.27843 112.979 8.27843C113.979 8.27843 114.979 8.39657 115.978 8.63284C116.978 8.85094 117.796 9.15082 118.432 9.53249L117.123 12.1224C115.887 11.3954 114.497 11.0319 112.952 11.0319C111.952 11.0319 111.189 11.1864 110.662 11.4954C110.153 11.7862 109.899 12.1769 109.899 12.6676C109.899 13.2129 110.171 13.6036 110.717 13.8399C111.28 14.058 112.143 14.267 113.306 14.4669C114.47 14.6487 115.424 14.8577 116.169 15.094C116.914 15.3302 117.55 15.7301 118.077 16.2935C118.623 16.8569 118.895 17.6566 118.895 18.6926C118.895 20.0557 118.305 21.1462 117.123 21.964C115.942 22.7819 114.333 23.1908 112.298 23.1908ZM127.391 8.27843C129.536 8.27843 131.172 8.79641 132.299 9.83238C133.444 10.8502 134.016 12.395 134.016 14.4669V23H130.799V21.228C130.381 21.8641 129.781 22.3548 129 22.7001C128.237 23.0273 127.31 23.1908 126.219 23.1908C125.129 23.1908 124.174 23.0091 123.357 22.6456C122.539 22.2639 121.903 21.7459 121.448 21.0916C121.012 20.4192 120.794 19.6649 120.794 18.8289C120.794 17.5203 121.276 16.4753 122.239 15.6937C123.22 14.8941 124.756 14.4942 126.846 14.4942H130.608V14.2761C130.608 13.2583 130.299 12.4768 129.681 11.9316C129.082 11.3863 128.182 11.1137 126.982 11.1137C126.165 11.1137 125.356 11.2409 124.556 11.4954C123.775 11.7498 123.111 12.1042 122.566 12.5586L121.23 10.0777C121.993 9.49614 122.911 9.05086 123.984 8.74189C125.056 8.43292 126.192 8.27843 127.391 8.27843ZM126.928 20.71C127.782 20.71 128.536 20.5191 129.191 20.1375C129.863 19.7376 130.336 19.1742 130.608 18.4472V16.757H127.092C125.129 16.757 124.147 17.4022 124.147 18.6926C124.147 19.3105 124.393 19.8012 124.883 20.1647C125.374 20.5282 126.056 20.71 126.928 20.71ZM146.65 8.27843C148.486 8.27843 149.958 8.81459 151.066 9.8869C152.175 10.9592 152.729 12.5495 152.729 14.6578V23H149.322V15.094C149.322 13.8217 149.022 12.8676 148.422 12.2314C147.822 11.5772 146.968 11.25 145.859 11.25C144.605 11.25 143.615 11.6317 142.888 12.395C142.161 13.1402 141.797 14.2216 141.797 15.6392V23H138.39V8.442H141.634V10.3231C142.197 9.65063 142.906 9.14173 143.76 8.79641C144.614 8.45109 145.578 8.27843 146.65 8.27843ZM162.614 8.27843C164.759 8.27843 166.394 8.79641 167.521 9.83238C168.666 10.8502 169.239 12.395 169.239 14.4669V23H166.022V21.228C165.604 21.8641 165.004 22.3548 164.222 22.7001C163.459 23.0273 162.532 23.1908 161.442 23.1908C160.351 23.1908 159.397 23.0091 158.579 22.6456C157.761 22.2639 157.125 21.7459 156.671 21.0916C156.235 20.4192 156.016 19.6649 156.016 18.8289C156.016 17.5203 156.498 16.4753 157.461 15.6937C158.443 14.8941 159.979 14.4942 162.069 14.4942H165.831V14.2761C165.831 13.2583 165.522 12.4768 164.904 11.9316C164.304 11.3863 163.404 11.1137 162.205 11.1137C161.387 11.1137 160.578 11.2409 159.779 11.4954C158.997 11.7498 158.334 12.1042 157.788 12.5586L156.453 10.0777C157.216 9.49614 158.134 9.05086 159.206 8.74189C160.278 8.43292 161.414 8.27843 162.614 8.27843ZM162.15 20.71C163.005 20.71 163.759 20.5191 164.413 20.1375C165.086 19.7376 165.558 19.1742 165.831 18.4472V16.757H162.314C160.351 16.757 159.37 17.4022 159.37 18.6926C159.37 19.3105 159.615 19.8012 160.106 20.1647C160.596 20.5282 161.278 20.71 162.15 20.71ZM182.363 22.2094C181.963 22.5365 181.473 22.7819 180.891 22.9455C180.328 23.109 179.728 23.1908 179.092 23.1908C177.492 23.1908 176.256 22.7728 175.384 21.9368C174.512 21.1007 174.076 19.883 174.076 18.2836V11.2773H171.676V8.55105H174.076V5.22507H177.483V8.55105H181.382V11.2773H177.483V18.2019C177.483 18.9107 177.656 19.4559 178.001 19.8376C178.347 20.2011 178.846 20.3828 179.501 20.3828C180.264 20.3828 180.9 20.1829 181.409 19.7831L182.363 22.2094ZM191.23 23.1908C189.758 23.1908 188.431 22.8728 187.25 22.2367C186.069 21.6005 185.142 20.7191 184.469 19.5922C183.815 18.4472 183.488 17.1568 183.488 15.721C183.488 14.2852 183.815 13.0039 184.469 11.877C185.142 10.7502 186.069 9.86873 187.25 9.23261C188.431 8.59649 189.758 8.27843 191.23 8.27843C192.721 8.27843 194.056 8.59649 195.238 9.23261C196.419 9.86873 197.337 10.7502 197.991 11.877C198.664 13.0039 199 14.2852 199 15.721C199 17.1568 198.664 18.4472 197.991 19.5922C197.337 20.7191 196.419 21.6005 195.238 22.2367C194.056 22.8728 192.721 23.1908 191.23 23.1908ZM191.23 20.2738C192.484 20.2738 193.52 19.8558 194.338 19.0197C195.156 18.1837 195.565 17.0841 195.565 15.721C195.565 14.3579 195.156 13.2583 194.338 12.4223C193.52 11.5862 192.484 11.1682 191.23 11.1682C189.976 11.1682 188.94 11.5862 188.122 12.4223C187.323 13.2583 186.923 14.3579 186.923 15.721C186.923 17.0841 187.323 18.1837 188.122 19.0197C188.94 19.8558 189.976 20.2738 191.23 20.2738ZM205.503 10.5685C206.484 9.04177 208.211 8.27843 210.683 8.27843V11.5226C210.392 11.4681 210.128 11.4408 209.892 11.4408C208.565 11.4408 207.529 11.8316 206.784 12.6131C206.039 13.3765 205.666 14.4851 205.666 15.9391V23H202.259V8.442H205.503V10.5685ZM213.573 8.442H216.981V23H213.573V8.442ZM215.291 6.04293C214.673 6.04293 214.155 5.8521 213.737 5.47043C213.319 5.07058 213.11 4.57987 213.11 3.99827C213.11 3.41668 213.319 2.93505 213.737 2.55338C214.155 2.15353 214.673 1.95361 215.291 1.95361C215.909 1.95361 216.427 2.14445 216.845 2.52612C217.263 2.88961 217.472 3.35307 217.472 3.91649C217.472 4.51625 217.263 5.02515 216.845 5.44317C216.445 5.84301 215.927 6.04293 215.291 6.04293ZM221.454 8.442H224.862V23H221.454V8.442ZM223.171 6.04293C222.554 6.04293 222.036 5.8521 221.618 5.47043C221.199 5.07058 220.99 4.57987 220.99 3.99827C220.99 3.41668 221.199 2.93505 221.618 2.55338C222.036 2.15353 222.554 1.95361 223.171 1.95361C223.789 1.95361 224.307 2.14445 224.725 2.52612C225.143 2.88961 225.352 3.35307 225.352 3.91649C225.352 4.51625 225.143 5.02515 224.725 5.44317C224.326 5.84301 223.808 6.04293 223.171 6.04293ZM243.548 23.1908C242.04 23.1908 240.685 22.8728 239.486 22.2367C238.286 21.6005 237.35 20.7191 236.678 19.5922C236.005 18.4472 235.669 17.1568 235.669 15.721C235.669 14.2852 236.005 13.0039 236.678 11.877C237.35 10.7502 238.277 9.86873 239.459 9.23261C240.658 8.59649 242.021 8.27843 243.548 8.27843C244.984 8.27843 246.238 8.56923 247.31 9.15082C248.401 9.73241 249.219 10.5685 249.764 11.6589L247.147 13.1856C246.729 12.5132 246.202 12.0133 245.565 11.6862C244.947 11.3409 244.266 11.1682 243.521 11.1682C242.249 11.1682 241.194 11.5862 240.358 12.4223C239.522 13.2401 239.104 14.3397 239.104 15.721C239.104 17.1023 239.513 18.2109 240.331 19.047C241.167 19.8649 242.23 20.2738 243.521 20.2738C244.266 20.2738 244.947 20.1102 245.565 19.7831C246.202 19.4377 246.729 18.9289 247.147 18.2564L249.764 19.7831C249.2 20.8736 248.373 21.7187 247.283 22.3184C246.211 22.9 244.966 23.1908 243.548 23.1908ZM259.04 23.1908C257.567 23.1908 256.241 22.8728 255.059 22.2367C253.878 21.6005 252.951 20.7191 252.279 19.5922C251.624 18.4472 251.297 17.1568 251.297 15.721C251.297 14.2852 251.624 13.0039 252.279 11.877C252.951 10.7502 253.878 9.86873 255.059 9.23261C256.241 8.59649 257.567 8.27843 259.04 8.27843C260.53 8.27843 261.866 8.59649 263.047 9.23261C264.228 9.86873 265.146 10.7502 265.801 11.877C266.473 13.0039 266.809 14.2852 266.809 15.721C266.809 17.1568 266.473 18.4472 265.801 19.5922C265.146 20.7191 264.228 21.6005 263.047 22.2367C261.866 22.8728 260.53 23.1908 259.04 23.1908ZM259.04 20.2738C260.294 20.2738 261.33 19.8558 262.147 19.0197C262.965 18.1837 263.374 17.0841 263.374 15.721C263.374 14.3579 262.965 13.2583 262.147 12.4223C261.33 11.5862 260.294 11.1682 259.04 11.1682C257.785 11.1682 256.75 11.5862 255.932 12.4223C255.132 13.2583 254.732 14.3579 254.732 15.721C254.732 17.0841 255.132 18.1837 255.932 19.0197C256.75 19.8558 257.785 20.2738 259.04 20.2738ZM288.443 8.27843C290.278 8.27843 291.732 8.81459 292.805 9.8869C293.877 10.941 294.413 12.5313 294.413 14.6578V23H291.005V15.094C291.005 13.8217 290.724 12.8676 290.16 12.2314C289.597 11.5772 288.788 11.25 287.734 11.25C286.589 11.25 285.671 11.6317 284.98 12.395C284.29 13.1402 283.944 14.2125 283.944 15.612V23H280.537V15.094C280.537 13.8217 280.255 12.8676 279.691 12.2314C279.128 11.5772 278.319 11.25 277.265 11.25C276.102 11.25 275.175 11.6226 274.484 12.3678C273.812 13.1129 273.476 14.1943 273.476 15.612V23H270.068V8.442H273.312V10.2958C273.857 9.64154 274.539 9.14173 275.357 8.79641C276.175 8.45109 277.083 8.27843 278.083 8.27843C279.173 8.27843 280.137 8.48744 280.973 8.90546C281.827 9.30531 282.499 9.90507 282.99 10.7048C283.59 9.94142 284.362 9.35074 285.307 8.93272C286.253 8.49653 287.298 8.27843 288.443 8.27843Z" fill="#A97456"/>
<path d="M20.3518 38.6809C23.0266 38.1363 24.5891 35.6206 24.5891 35.6206L25 51C25 51 23.4795 50.8674 22.2585 50.196C21.3892 49.718 20.5026 48.7188 19.7426 48.1472C17.9153 46.7726 15.0552 45.9168 14.1547 45.5537C13.2542 45.1906 11.1092 43.3752 11.1092 43.3752C11.1092 43.3752 8.27549 40.8854 7.66638 38.1363C7.05727 35.3872 7.08375 33.3643 7.29562 32.6122C7.50748 31.8601 8.8846 27.7105 10.1028 24.0018C11.321 20.2931 10.659 19.4373 10.659 19.4373C10.659 19.4373 10.0499 16.351 6.97782 14.5875C3.90578 12.8239 0.542432 12.0199 0.542432 12.0199C0.542432 12.0199 -0.172623 10.775 0.0392418 9.55609C0.251106 8.33715 1.23098 8 1.23098 8C1.23098 8 7.50746 8.77805 11.2416 12.0199C14.9757 15.2618 14.9492 19.8782 14.9757 20.1635C15.0022 20.4487 15.3444 21.0712 17.5445 21.149C19.7447 21.2268 20.2458 20.1635 20.2458 20.1635L17.7034 25.5579C17.7034 25.5579 17.2267 25.0651 16.5911 24.9355C15.9556 24.8058 15.0286 24.9873 15.0286 24.9873C15.0286 24.9873 12.857 25.5579 12.7776 30.9005C12.6981 36.2431 15.0552 37.1249 15.0552 37.1249C15.0552 37.1249 17.677 39.2256 20.3518 38.6809Z" fill="url(#paint0_linear)"/>
<path d="M48.8277 41.7519C49.1187 43.0746 49.198 44.1593 49.0393 45.4292C48.8806 46.699 48.1134 48.3128 47.2403 49.5827C46.3673 50.8525 44.2509 51.4875 44.2509 51.4875H34.0391V2.70361H41.0233C41.0233 2.70361 41.5246 2.81282 41.8434 3.44437C42.0752 3.90352 42.1609 4.29094 42.1609 5.16397C42.1609 6.037 40.6794 7.38623 40.6794 7.38623C40.6794 7.38623 39.5947 8.44445 39.2243 9.1852C38.854 9.92595 39.4095 10.5609 39.4095 10.5609C39.4095 10.5609 39.9726 11.0426 41.1291 11.9101C42.2768 12.771 43.8038 13.751 44.489 14.344C45.8646 15.5345 48.1398 17.889 48.7483 18.9737C49.3568 20.0584 50.7917 22.4948 51.3674 24.2648C51.748 25.4351 51.8166 26.605 51.7113 26.9103C51.4467 27.6776 50.8912 28.2596 50.6002 28.4448C50.3092 28.63 48.5366 29.4236 47.2403 30.2437C45.944 31.0639 44.9916 32.8893 44.9916 32.8893C44.9916 32.8893 44.2509 34.8205 44.9916 36.1962C45.7324 37.5719 46.8964 38.2862 47.3991 38.8153C47.9017 39.3444 48.5366 40.4291 48.8277 41.7519Z" fill="#A97456"/>
<path d="M20.3901 41.7519C20.0991 43.0746 20.0197 44.1593 20.1785 45.4292C20.3372 46.699 21.1044 48.3128 21.9774 49.5827C22.8505 50.8525 24.9669 51.4875 24.9669 51.4875H35.1787V2.70361H28.1945C28.1945 2.70361 27.6931 2.81282 27.3744 3.44437C27.1426 3.90352 27.0569 4.29094 27.0569 5.16397C27.0569 6.037 28.5384 7.38623 28.5384 7.38623C28.5384 7.38623 29.6231 8.44445 29.9934 9.1852C30.3638 9.92595 29.8083 10.5609 29.8083 10.5609C29.8083 10.5609 29.2452 11.0426 28.0887 11.9101C26.9409 12.771 25.414 13.751 24.7288 14.344C23.3531 15.5345 21.078 17.889 20.4695 18.9737C19.861 20.0584 18.4261 22.4948 17.8504 24.2648C17.4697 25.4351 17.4012 26.605 17.5065 26.9103C17.771 27.6776 18.3266 28.2596 18.6176 28.4448C18.9086 28.63 20.6811 29.4236 21.9774 30.2437C23.2738 31.0639 24.2262 32.8893 24.2262 32.8893C24.2262 32.8893 24.9669 34.8205 24.2262 36.1962C23.4854 37.5719 22.3214 38.2862 21.8187 38.8153C21.3161 39.3444 20.6811 40.4291 20.3901 41.7519Z" fill="#A97456"/>
<rect x="26" y="2" width="17" height="5" rx="2.5" fill="url(#paint1_linear)"/>
<rect x="21" y="50" width="29" height="3" rx="1.5" fill="url(#paint2_linear)"/>
<path d="M34.6373 23.2017L29.7932 31.3417C28.7753 33.0626 28.6966 35.2507 29.7932 37.0934C31.4416 39.8634 35.1085 40.8213 37.9833 39.233C40.8582 37.6447 41.8524 34.1116 40.204 31.3416L35.3598 23.2017C35.1998 22.9328 34.7973 22.9328 34.6373 23.2017Z" fill="url(#paint3_linear)"/>
<g clip-path="url(#clip0)">
<path d="M230.686 22.3878L227.718 27.5651C227.094 28.6597 227.046 30.0515 227.718 31.2235C228.728 32.9853 230.975 33.5946 232.737 32.5843C234.499 31.5741 235.108 29.327 234.098 27.5651L231.129 22.3878C231.031 22.2168 230.784 22.2168 230.686 22.3878Z" fill="#A97456"/>
</g>
<defs>
<linearGradient id="paint0_linear" x1="0.228673" y1="10.0642" x2="35.1872" y2="45.0944" gradientUnits="userSpaceOnUse">
<stop stop-color="#CF9D80"/>
<stop offset="1" stop-color="#CF9D80" stop-opacity="0.8"/>
</linearGradient>
<linearGradient id="paint1_linear" x1="26.1555" y1="2.24002" x2="27.5036" y2="10.1399" gradientUnits="userSpaceOnUse">
<stop stop-color="#CF9D80"/>
<stop offset="1" stop-color="#CF9D80" stop-opacity="0.8"/>
</linearGradient>
<linearGradient id="paint2_linear" x1="21.2653" y1="50.144" x2="21.557" y2="55.0044" gradientUnits="userSpaceOnUse">
<stop stop-color="#CF9D80"/>
<stop offset="1" stop-color="#CF9D80"/>
</linearGradient>
<linearGradient id="paint3_linear" x1="29.1098" y1="23.8161" x2="42.6691" y2="40.3125" gradientUnits="userSpaceOnUse">
<stop stop-color="#CF9D80"/>
<stop offset="1" stop-color="#CF9D80" stop-opacity="0.8"/>
</linearGradient>
<clipPath id="clip0">
<rect x="225.502" y="22.2593" width="10.8127" height="10.8127" fill="white"/>
</clipPath>
</defs>
</svg>
